<?xml version="1.0" encoding="UTF-8"?>
<svg width="796px" height="172px" viewBox="0 0 796 172" version="1.1" xmlns="http://www.w3.org/2000/svg" xmlns:xlink="http://www.w3.org/1999/xlink">
    <!-- Generator: Sketch 47.1 (45422) - http://www.bohemiancoding.com/sketch -->
    <title>Logo/Logo-Inv</title>
    <desc>Created with Sketch.</desc>
    <defs></defs>
    <g id="Symbols" stroke="none" stroke-width="1" fill="none" fill-rule="evenodd">
        <g id="Logo/Logo-Inv" fill="#FFFFFF">
            <path d="M166.539062,61.7929688 L134.605469,61.7929688 L134.605469,44.0195312 L164.732422,44.0195312 L164.732422,32.6914062 L134.605469,32.6914062 L134.605469,15.6992188 L166.539062,15.6992188 L166.539062,3.54101562 L119.859375,3.54101562 L119.859375,74 L166.539062,74 L166.539062,61.7929688 Z M173.885477,74 L188.143289,74 L188.143289,43.3359375 C188.143289,36.2070312 192.244852,31.3242188 199.080789,31.3242188 C205.81907,31.3242188 209.139383,35.3769531 209.139383,42.5058594 L209.139383,74 L223.397195,74 L223.397195,39.5273438 C223.397195,26.9785156 216.658914,19.4589844 204.744852,19.4589844 C196.492898,19.4589844 191.024148,23.0722656 187.947977,29.859375 L187.655008,29.859375 L187.655008,20.2402344 L173.885477,20.2402344 L173.885477,74 Z M235.859617,8.27734375 L235.859617,20.2402344 L228.584227,20.2402344 L228.584227,31.03125 L235.859617,31.03125 L235.859617,59.4980469 C235.859617,69.9960938 240.74243,74.1953125 253.193602,74.1953125 C256.074461,74.1953125 258.613523,73.9023438 260.078367,73.609375 L260.078367,63.0625 C259.199461,63.2089844 257.783445,63.3066406 256.513914,63.3066406 C252.168211,63.3066406 250.11743,61.3046875 250.11743,57.1542969 L250.11743,31.03125 L260.078367,31.03125 L260.078367,20.2402344 L250.11743,20.2402344 L250.11743,8.27734375 L235.859617,8.27734375 Z M267.462664,74 L281.720477,74 L281.720477,43.921875 C281.720477,36.4023438 285.968523,31.9101562 293.195086,31.9101562 C295.294695,31.9101562 297.24782,32.2519531 298.468523,32.7402344 L298.468523,20.1425781 C297.443133,19.8007813 295.978289,19.6054688 294.318133,19.6054688 C287.970477,19.6054688 283.331805,23.21875 281.525164,29.859375 L281.232195,29.859375 L281.232195,20.2402344 L267.462664,20.2402344 L267.462664,74 Z M324.516109,29.9570312 C318.021969,29.9570312 313.236813,34.6933594 312.748531,41.578125 L335.941891,41.578125 C335.69775,34.546875 331.107906,29.9570312 324.516109,29.9570312 Z M336.137203,57.59375 L349.271969,57.59375 C347.709469,67.9941406 337.992672,74.9277344 324.906734,74.9277344 C308.549313,74.9277344 298.539547,64.4296875 298.539547,47.3398438 C298.539547,30.25 308.598141,19.3125 324.369625,19.3125 C339.848141,19.3125 349.711422,29.6640625 349.711422,46.0214844 L349.711422,50.4160156 L312.602047,50.4160156 L312.602047,51.2949219 C312.602047,59.0585938 317.631344,64.2832031 325.150875,64.2832031 C330.521969,64.2832031 334.770016,61.7441406 336.137203,57.59375 Z M386.159399,19.6054688 C399.782445,19.6054688 408.229711,30.0058594 408.229711,47.0957031 C408.229711,64.1855469 399.831274,74.6347656 386.354711,74.6347656 C378.591039,74.6347656 372.58518,71.0703125 369.655492,64.9667969 L369.362524,64.9667969 L369.362524,91.578125 L355.104711,91.578125 L355.104711,20.2402344 L369.167211,20.2402344 L369.167211,29.4199219 L369.46018,29.4199219 C372.292211,23.3652344 378.591039,19.6054688 386.159399,19.6054688 Z M381.42307,63.1113281 C388.796117,63.1113281 393.630102,56.8613281 393.630102,47.0957031 C393.630102,37.4277344 388.796117,31.1289062 381.42307,31.1289062 C374.14768,31.1289062 369.313695,37.5253906 369.313695,47.1445312 C369.313695,56.8125 374.14768,63.1113281 381.42307,63.1113281 Z M413.574172,74 L427.831984,74 L427.831984,43.921875 C427.831984,36.4023438 432.080031,31.9101562 439.306594,31.9101562 C441.406203,31.9101562 443.359328,32.2519531 444.580031,32.7402344 L444.580031,20.1425781 C443.554641,19.8007813 442.089797,19.6054688 440.429641,19.6054688 C434.081984,19.6054688 429.443313,23.21875 427.636672,29.859375 L427.343703,29.859375 L427.343703,20.2402344 L413.574172,20.2402344 L413.574172,74 Z M470.627617,29.9570312 C464.133477,29.9570312 459.34832,34.6933594 458.860039,41.578125 L482.053399,41.578125 C481.809258,34.546875 477.219414,29.9570312 470.627617,29.9570312 Z M482.248711,57.59375 L495.383477,57.59375 C493.820977,67.9941406 484.10418,74.9277344 471.018242,74.9277344 C454.66082,74.9277344 444.651055,64.4296875 444.651055,47.3398438 C444.651055,30.25 454.709649,19.3125 470.481133,19.3125 C485.959649,19.3125 495.82293,29.6640625 495.82293,46.0214844 L495.82293,50.4160156 L458.713555,50.4160156 L458.713555,51.2949219 C458.713555,59.0585938 463.742852,64.2832031 471.262383,64.2832031 C476.633477,64.2832031 480.881524,61.7441406 482.248711,57.59375 Z M501.216219,74 L515.474031,74 L515.474031,43.3359375 C515.474031,36.2070312 519.575594,31.3242188 526.411531,31.3242188 C533.149813,31.3242188 536.470125,35.3769531 536.470125,42.5058594 L536.470125,74 L550.727938,74 L550.727938,39.5273438 C550.727938,26.9785156 543.989656,19.4589844 532.075594,19.4589844 C523.823641,19.4589844 518.354891,23.0722656 515.278719,29.859375 L514.98575,29.859375 L514.98575,20.2402344 L501.216219,20.2402344 L501.216219,74 Z M581.156375,29.9570312 C574.662235,29.9570312 569.877078,34.6933594 569.388797,41.578125 L592.582156,41.578125 C592.338016,34.546875 587.748172,29.9570312 581.156375,29.9570312 Z M592.777469,57.59375 L605.912235,57.59375 C604.349735,67.9941406 594.632938,74.9277344 581.547,74.9277344 C565.189578,74.9277344 555.179813,64.4296875 555.179813,47.3398438 C555.179813,30.25 565.238406,19.3125 581.009891,19.3125 C596.488406,19.3125 606.351688,29.6640625 606.351688,46.0214844 L606.351688,50.4160156 L569.242313,50.4160156 L569.242313,51.2949219 C569.242313,59.0585938 574.27161,64.2832031 581.791141,64.2832031 C587.162235,64.2832031 591.410281,61.7441406 592.777469,57.59375 Z M661.012555,20.2402344 L646.754742,20.2402344 L646.754742,50.8554688 C646.754742,58.1308594 642.604352,62.9160156 635.963727,62.9160156 C629.37193,62.9160156 625.758649,59.0097656 625.758649,51.734375 L625.758649,20.2402344 L611.500836,20.2402344 L611.500836,54.7128906 C611.500836,67.2128906 619.166852,74.78125 630.787945,74.78125 C638.942242,74.78125 644.21568,71.0214844 646.950055,64.2832031 L647.243024,64.2832031 L647.243024,74 L661.012555,74 L661.012555,20.2402344 Z M667.410524,74 L681.668336,74 L681.668336,43.921875 C681.668336,36.4023438 685.916383,31.9101562 693.142945,31.9101562 C695.242555,31.9101562 697.19568,32.2519531 698.416383,32.7402344 L698.416383,20.1425781 C697.390992,19.8007813 695.926149,19.6054688 694.265992,19.6054688 C687.918336,19.6054688 683.279664,23.21875 681.473024,29.859375 L681.180055,29.859375 L681.180055,20.2402344 L667.410524,20.2402344 L667.410524,74 Z M702.442485,74 L716.700297,74 L716.700297,20.2402344 L702.442485,20.2402344 L702.442485,74 Z M709.571391,14.3808594 C713.819438,14.3808594 717.286235,11.1582031 717.286235,6.91015625 C717.286235,2.66210937 713.819438,-0.51171875 709.571391,-0.51171875 C705.372172,-0.51171875 701.905375,2.66210937 701.905375,6.91015625 C701.905375,11.1582031 705.372172,14.3808594 709.571391,14.3808594 Z M744.896321,64.234375 C751.488117,64.234375 756.761555,60.1328125 756.761555,54.2734375 L756.761555,50.3183594 L745.482258,51.0996094 C739.525227,51.4902344 736.351399,53.8339844 736.351399,57.7890625 C736.351399,61.7441406 739.720539,64.234375 744.896321,64.234375 Z M740.257649,74.6347656 C729.906086,74.6347656 722.142414,68.140625 722.142414,58.5214844 C722.142414,48.7558594 729.613117,43.2382812 743.333821,42.4082031 L756.761555,41.578125 L756.761555,38.0136719 C756.761555,32.8378906 753.197102,30.0058594 747.337727,30.0058594 C742.161946,30.0058594 738.548664,32.7402344 737.865071,36.6464844 L724.827961,36.6464844 C725.218586,26.3925781 734.49593,19.3125 747.923664,19.3125 C761.742024,19.3125 770.775227,26.3925781 770.775227,37.1347656 L770.775227,74 L757.005696,74 L757.005696,65.6992188 L756.712727,65.6992188 C753.783039,71.3144531 747.142414,74.6347656 740.257649,74.6347656 Z M778.463438,74 L792.72125,74 L792.72125,0.171875 L778.463438,0.171875 L778.463438,74 Z" id="Entrepreneurial" opacity="0.899999976"></path>
            <path d="M166.539062,157.792969 L134.605469,157.792969 L134.605469,140.019531 L164.732422,140.019531 L164.732422,128.691406 L134.605469,128.691406 L134.605469,111.699219 L166.539062,111.699219 L166.539062,99.5410156 L119.859375,99.5410156 L119.859375,170 L166.539062,170 L166.539062,157.792969 Z M173.885477,170 L188.143289,170 L188.143289,139.335938 C188.143289,132.207031 192.244852,127.324219 199.080789,127.324219 C205.81907,127.324219 209.139383,131.376953 209.139383,138.505859 L209.139383,170 L223.397195,170 L223.397195,135.527344 C223.397195,122.978516 216.658914,115.458984 204.744852,115.458984 C196.492898,115.458984 191.024148,119.072266 187.947977,125.859375 L187.655008,125.859375 L187.655008,116.240234 L173.885477,116.240234 L173.885477,170 Z M250.567828,170.634766 C237.188922,170.634766 228.546344,159.990234 228.546344,143.046875 C228.546344,126.201172 237.23775,115.605469 250.616656,115.605469 C258.380328,115.605469 264.386188,119.462891 267.071734,125.419922 L267.364703,125.419922 L267.364703,96.171875 L281.622516,96.171875 L281.622516,170 L267.560016,170 L267.560016,160.820312 L267.315875,160.820312 C264.679156,166.728516 258.477984,170.634766 250.567828,170.634766 Z M255.304156,127.128906 C247.882281,127.128906 243.145953,133.330078 243.145953,143.095703 C243.145953,152.958984 247.882281,159.111328 255.304156,159.111328 C262.677203,159.111328 267.462359,152.861328 267.462359,143.144531 C267.462359,133.427734 262.677203,127.128906 255.304156,127.128906 Z M313.236508,125.957031 C306.742367,125.957031 301.957211,130.693359 301.46893,137.578125 L324.662289,137.578125 C324.418149,130.546875 319.828305,125.957031 313.236508,125.957031 Z M324.857602,153.59375 L337.992367,153.59375 C336.429867,163.994141 326.71307,170.927734 313.627133,170.927734 C297.269711,170.927734 287.259945,160.429688 287.259945,143.339844 C287.259945,126.25 297.318539,115.3125 313.090024,115.3125 C328.568539,115.3125 338.43182,125.664062 338.43182,142.021484 L338.43182,146.416016 L301.322445,146.416016 L301.322445,147.294922 C301.322445,155.058594 306.351742,160.283203 313.871274,160.283203 C319.242367,160.283203 323.490414,157.744141 324.857602,153.59375 Z M364.38175,160.234375 C370.973547,160.234375 376.246984,156.132812 376.246984,150.273438 L376.246984,146.318359 L364.967688,147.099609 C359.010656,147.490234 355.836828,149.833984 355.836828,153.789062 C355.836828,157.744141 359.205969,160.234375 364.38175,160.234375 Z M359.743078,170.634766 C349.391516,170.634766 341.627844,164.140625 341.627844,154.521484 C341.627844,144.755859 349.098547,139.238281 362.81925,138.408203 L376.246984,137.578125 L376.246984,134.013672 C376.246984,128.837891 372.682531,126.005859 366.823156,126.005859 C361.647375,126.005859 358.034094,128.740234 357.3505,132.646484 L344.313391,132.646484 C344.704016,122.392578 353.981359,115.3125 367.409094,115.3125 C381.227453,115.3125 390.260656,122.392578 390.260656,133.134766 L390.260656,170 L376.491125,170 L376.491125,161.699219 L376.198156,161.699219 C373.268469,167.314453 366.627844,170.634766 359.743078,170.634766 Z M444.896125,116.240234 L426.341438,170 L410.325813,170 L391.673469,116.240234 L406.907844,116.240234 L418.333625,157.255859 L418.626594,157.255859 L430.003547,116.240234 L444.896125,116.240234 Z M470.894883,170.927734 C454.586289,170.927734 444.381211,160.478516 444.381211,143.095703 C444.381211,125.908203 454.732774,115.3125 470.894883,115.3125 C487.10582,115.3125 497.408555,125.859375 497.408555,143.095703 C497.408555,160.527344 487.203477,170.927734 470.894883,170.927734 Z M470.894883,159.941406 C478.414414,159.941406 482.906602,153.789062 482.906602,143.095703 C482.906602,132.5 478.365586,126.25 470.894883,126.25 C463.375352,126.25 458.834336,132.548828 458.834336,143.095703 C458.834336,153.789062 463.375352,159.941406 470.894883,159.941406 Z M501.455742,170 L515.713555,170 L515.713555,139.921875 C515.713555,132.402344 519.961602,127.910156 527.188164,127.910156 C529.287774,127.910156 531.240899,128.251953 532.461602,128.740234 L532.461602,116.142578 C531.436211,115.800781 529.971367,115.605469 528.311211,115.605469 C521.963555,115.605469 517.324883,119.21875 515.518242,125.859375 L515.225274,125.859375 L515.225274,116.240234 L501.455742,116.240234 L501.455742,170 Z M535.318555,132.060547 C535.318555,139.921875 540.543164,145.146484 550.650586,147.441406 L560.562695,149.6875 C565.445508,150.859375 567.300977,152.324219 567.300977,155.107422 C567.300977,158.623047 563.83418,160.820312 558.170117,160.820312 C552.261914,160.820312 548.599805,158.28125 547.916211,153.740234 L534.000195,153.740234 C534.732617,164.091797 543.619336,170.927734 557.779492,170.927734 C571.841992,170.927734 581.461133,164.042969 581.461133,153.59375 C581.461133,145.585938 577.164258,141.435547 566.373242,138.994141 L556.26582,136.796875 C551.431836,135.673828 549.088086,133.867188 549.088086,131.181641 C549.088086,127.714844 552.506055,125.419922 557.633008,125.419922 C563.101758,125.419922 566.666211,128.105469 566.95918,132.353516 L580.142774,132.353516 C579.947461,122.099609 571.10957,115.3125 557.82832,115.3125 C544.205274,115.3125 535.318555,121.953125 535.318555,132.060547 Z" id="Endeavors"></path>
            <path d="M75,74 L73.9330893,74 L75,74 L50,74 L50,49 L37,49 L37,49.0098172 C30.3282334,49.2722691 25,54.7638968 25,61.5 C25,61.6674562 25.0032928,61.8341432 25.0098172,62 L25,62 L25,74 L0,74 L0,62 L0.00326517383,62 C0.00109063701,61.8335926 0,61.6669236 0,61.5 C0,40.7893219 16.7893219,24 37.5,24 C37.6669236,24 37.8335926,24.0010906 38,24.0032652 L38,24 L50,24 L50,26.1338213 L50,24 L75,24 L75,74 Z M50,99 L75,99 L75,111 L74.9967348,111 C74.9989094,111.166407 75,111.333076 75,111.5 C75,132.210678 58.2106781,149 37.5,149 C37.3330764,149 37.1664074,148.998909 37,148.996735 L37,149 L25,149 L25,146.866179 L25,149 L0,149 L0,99 L25,99 L25,124 L38,124 L38,123.990183 C44.6717666,123.727731 50,118.236103 50,111.5 C50,111.332544 49.9967072,111.165857 49.9901828,111 L50,111 L50,99 Z" id="Combined-Shape"></path>
        </g>
    </g>
</svg>