<?xml version="1.0" encoding="UTF-8"?>
<svg width="57px" height="80px" viewBox="0 0 57 80" version="1.1" xmlns="http://www.w3.org/2000/svg" xmlns:xlink="http://www.w3.org/1999/xlink">
    <!-- Generator: Sketch 47.1 (45422) - http://www.bohemiancoding.com/sketch -->
    <title>ico-student</title>
    <desc>Created with Sketch.</desc>
    <defs></defs>
    <g id="Page-1" stroke="none" stroke-width="1" fill="none" fill-rule="evenodd">
        <g id="ico-student" fill-rule="nonzero" fill="#FFFFFF">
            <path d="M1.73491686,72.3340618 C0.790308789,72.3340618 0.0247030879,73.0996675 0.0247030879,74.0442755 L0.0247030879,78.2247981 C0.0247030879,79.1694062 0.790308789,79.9350119 1.73491686,79.9350119 L10.1980048,79.9350119 L18.6856057,79.9350119 L37.9414727,79.9350119 L46.4290736,79.9350119 L54.8921615,79.9350119 C55.8367696,79.9350119 56.6023753,79.1694062 56.6023753,78.2247981 L56.6023753,63.6193824 C56.6023753,60.8891211 55.6364846,58.3808076 54.0298337,56.415962 L54.0298337,42.0571971 C54.0298337,41.1125891 53.264228,40.3469834 52.31962,40.3469834 L44.432114,40.3469834 C45.4453207,38.3684561 46.0207126,36.1305463 46.0207126,33.7590499 L46.0207126,27.8118765 C52.4053207,20.2544418 54.0668884,12.807791 50.5645606,7.31135392 C48.5392874,4.13301663 45.0095962,1.95382423 40.3566746,1.00921615 C35.7493587,0.0735391924 30.3369121,0.437244656 24.7065083,2.06099762 C13.1260808,5.39990499 9.4360095,2.87030879 8.95752969,1.56484561 C8.83534442,0.730451306 8.13149644,0.18128266 7.2832304,0.179002375 C7.28171021,0.179002375 7.28038005,0.179002375 7.27904988,0.179002375 C6.42204276,0.179002375 5.70983373,0.88912114 5.59657957,1.73909739 C4.46061758,10.2599525 9.01795724,16.248171 10.6056057,18.0427553 L10.6056057,33.7588599 C10.6056057,36.1301663 11.1809976,38.368266 12.1942043,40.3467933 L4.30669834,40.3467933 C3.36209026,40.3467933 2.59648456,41.112399 2.59648456,42.0570071 L2.59648456,56.416152 C0.990023753,58.3809976 0.0243230404,60.8893112 0.0243230404,63.6191924 L0.0243230404,65.968076 C0.0243230404,66.9126841 0.789928741,67.6782898 1.73453682,67.6782898 C2.67914489,67.6782898 3.44475059,66.9126841 3.44475059,65.968076 L3.44475059,63.6191924 C3.44475059,60.2565321 5.53710214,57.3752019 8.48741093,56.2033254 L8.48741093,76.5145843 L3.44513064,76.5145843 L3.44513064,74.0442755 C3.44513064,73.0998575 2.67952494,72.3340618 1.73491686,72.3340618 Z M23.032019,55.6416152 L33.5948694,55.6416152 L36.2312589,55.6416152 L36.2312589,76.5145843 L20.3958195,76.5145843 L20.3958195,55.6416152 L23.032019,55.6416152 Z M14.0262233,33.7588599 L14.0262233,19.0787648 L42.600285,19.0787648 L42.600285,33.7588599 C42.600285,39.5125891 38.1940143,44.2555819 32.5790024,44.7939192 L24.047696,44.7939192 C18.4324941,44.255772 14.0262233,39.5127791 14.0262233,33.7588599 Z M24.7422328,48.2572922 C24.8661283,48.2605226 24.9892637,48.2667933 25.1139192,48.2667933 L31.5129691,48.2667933 C31.6376247,48.2667933 31.7607601,48.2605226 31.8846556,48.2572922 L31.8846556,52.2211876 L24.7422328,52.2211876 L24.7422328,48.2572922 L24.7422328,48.2572922 Z M39.6516865,76.5145843 L39.6516865,55.6416152 L44.7188599,55.6416152 L44.7188599,76.5145843 L39.6516865,76.5145843 Z M53.1819477,76.5145843 L48.1392874,76.5145843 L48.1392874,56.2035154 C51.0895962,57.3753919 53.1819477,60.2567221 53.1819477,63.6193824 L53.1819477,76.5145843 Z M50.6094062,43.7672209 L50.6094062,53.5868884 C49.5543943,53.016247 48.3990499,52.6099762 47.1783373,52.3958195 C46.951829,52.2850356 46.6981473,52.2211876 46.4290736,52.2211876 L45.2043705,52.2211876 L37.9414727,52.2211876 L35.3050831,52.2211876 L35.3050831,47.7605701 C37.8954869,47.0582423 40.1987648,45.6547268 42.0007601,43.7670309 L50.6094062,43.7670309 L50.6094062,43.7672209 Z M25.6543468,5.34764846 C35.5589549,2.4912114 44.4110214,4.01938242 47.68,9.14964371 C49.8257482,12.5168646 49.1982898,17.0911164 46.0209026,22.0832304 L46.0209026,17.3687411 C46.0209026,16.424133 45.2552969,15.6585273 44.3106888,15.6585273 L13.0658432,15.6585273 C12.0104513,14.4326841 9.39173397,10.9373872 8.91496437,5.96750594 C12.4619477,7.73605701 18.087981,7.52893112 25.6543468,5.34764846 Z M14.6259382,43.7672209 C16.4281235,45.6549169 18.7314014,47.0582423 21.3218052,47.7607601 L21.3218052,52.2213777 L18.6856057,52.2213777 L11.4227078,52.2213777 L10.1980048,52.2213777 C9.92893112,52.2213777 9.67524941,52.2852257 9.44874109,52.3960095 C8.22783848,52.6101663 7.07230404,53.0166271 6.01729216,53.5874584 L6.01729216,43.7674109 L14.6259382,43.7674109 L14.6259382,43.7672209 Z M11.9082185,55.6416152 L16.9753919,55.6416152 L16.9753919,76.5145843 L11.9082185,76.5145843 L11.9082185,55.6416152 Z" id="Shape"></path>
        </g>
    </g>
</svg>